Coordinates
version=1
nRows=13
nColumns=34
inDegrees=yes

Units are S.I. units (second, meters, Newtons, ...)
If the header above contains a line with 'inDegrees', this indicates whether rotational values are in degrees (yes) or radians (no).

endheader
time	pelvis_tilt	pelvis_list	pelvis_rotation	pelvis_tx	pelvis_ty	pelvis_tz	hip_flexion_r	hip_adduction_r	hip_rotation_r	knee_angle_r	ankle_angle_r	subtalar_angle_r	mtp_angle_r	hip_flexion_l	hip_adduction_l	hip_rotation_l	knee_angle_l	ankle_angle_l	subtalar_angle_l	mtp_angle_l	lumbar_extension	lumbar_bending	lumbar_rotation	arm_flex_r	arm_add_r	arm_rot_r	elbow_flex_r	pro_sup_r	arm_flex_l	arm_add_l	arm_rot_l	elbow_flex_l	pro_sup_l
      2.31666670	    -16.71101584	      7.32897430	     -4.45506339	      0.38025658	      0.73228840	     -0.01062980	     71.58288620	      3.68800622	      1.12272578	     84.72330608	     38.24258116	      1.25131254	      0.00000000	     68.61302712	      1.28762992	     -3.92605504	      9.49968400	      5.24391854	     -8.23736539	      0.00000000	    -21.20227012	      6.37571608	      2.22455200	     96.15787122	      2.35165061	     56.94917946	    112.13016578	     90.98291878	    105.51286040	      8.04295794	     72.51871894	    113.21716576	     67.84303419
      2.33333330	    -16.70560013	      7.35268781	     -4.46452748	      0.38319557	      0.73350962	     -0.01000260	     71.15204674	      3.56479735	      1.10344254	     84.22664897	     38.22264659	      1.42295731	      0.00000000	     68.37002574	      1.28609250	     -3.88873173	      9.33517509	      5.33514837	     -8.00160364	      0.00000000	    -20.67343021	      6.48850955	      2.18867384	     96.05661067	      2.49604719	     57.17507941	    112.19841936	     90.86817109	    105.58156535	      8.20818855	     72.58334185	    113.33748106	     67.84907836
      2.35000000	    -16.73921002	      7.50775556	     -4.54354645	      0.38238345	      0.73965292	     -0.00898141	     70.70103191	      3.40820998	      1.07489949	     83.55047780	     38.15159135	      1.45961595	      0.00000000	     68.36126599	      1.32007980	     -3.86763495	      9.59425026	      5.26128905	     -7.93797725	      0.00000000	    -20.21833596	      6.38094106	      2.17797297	     96.13023836	      2.52525248	     57.17996874	    112.16072462	     90.84333920	    105.71448704	      8.23814202	     72.56400952	    113.37318902	     67.84989190
      2.36666670	    -16.63391893	      7.44339524	     -4.79008999	      0.38349292	      0.74801723	     -0.00929738	     69.66720967	      3.30576027	      0.88171226	     82.23881842	     37.64866589	      1.58472757	      0.00000000	     68.05385003	      1.10636827	     -3.88863119	      9.71568244	      5.26647768	     -7.71429188	      0.00000000	    -19.94227428	      6.42705277	      2.11295710	     95.91528576	      2.75251094	     57.93893836	    111.69024911	     90.53696118	    105.89136396	      8.26358834	     73.18901162	    113.65828178	     67.89977940
      2.38333330	    -16.50594665	      7.52484994	     -5.18802696	      0.38729782	      0.75191919	     -0.00919596	     68.69121743	      3.22769049	      0.88547833	     81.09145176	     37.45617437	      1.82431009	      0.00000000	     67.95768447	      0.77989734	     -3.81949069	     10.09035949	      5.44239614	     -7.77678142	      0.00000000	    -19.41958424	      6.20229680	      1.98039263	     95.80127181	      3.12624994	     58.25810191	    111.84626086	     90.45577008	    105.86752389	      8.38899375	     73.27058047	    113.77463041	     67.91068079
      2.40000000	    -16.45973700	      7.66552271	     -5.35436560	      0.38934834	      0.75946762	     -0.00944200	     67.65972989	      2.88141896	      0.82439228	     79.66720110	     37.18885886	      2.08739191	      0.00000000	     67.90134772	      0.66890620	     -3.85352675	     10.11432854	      5.51183380	     -7.88298882	      0.00000000	    -18.86618135	      6.07686605	      1.82789695	     95.54720062	      3.57694141	     58.71087516	    112.07831981	     90.38759903	    105.90172872	      8.62848204	     73.34531389	    113.99410560	     67.92767407
      2.41666670	    -16.21655716	      7.88975140	     -5.34049604	      0.39081892	      0.76678400	     -0.00847169	     66.40136825	      2.41331407	      0.89510292	     78.15901922	     37.12641304	      2.51263577	      0.00000000	     67.75838774	      0.75688843	     -3.83428533	     10.16334294	      5.33139220	     -7.98397867	      0.00000000	    -18.38369704	      5.81070640	      1.38466656	     95.04796815	      4.22103843	     59.86026891	    112.82833550	     90.27037502	    105.57702704	      8.26329471	     73.51950991	    114.14015639	     67.95915346
      2.43333330	    -16.18623795	      8.10822655	     -5.16859884	      0.39282673	      0.77439989	     -0.00817656	     65.33096703	      1.87089663	      0.82090499	     76.74234373	     37.01207664	      3.11334904	      0.00000000	     67.84944430	      0.98000004	     -3.86874293	     10.07405344	      4.81320985	     -8.19127792	      0.00000000	    -17.74071026	      5.50327322	      0.69835051	     94.84726013	      4.80834847	     61.18812020	    113.87087867	     90.14958029	    105.59935028	      8.13050042	     73.63092727	    114.33061956	     68.01554904
      2.45000000	    -16.16011201	      8.23158303	     -5.05343815	      0.39608577	      0.78305923	     -0.00700719	     64.07465248	      1.55694541	      0.77442895	     75.10176262	     36.82393444	      3.27519890	      0.00000000	     67.77604300	      1.07435762	     -4.05538830	      9.75607044	      4.39741205	     -8.20505364	      0.00000000	    -17.01356500	      5.31685408	      0.55246766	     94.25490204	      5.02957636	     61.79878920	    114.09597583	     90.12814917	    105.59758902	      8.74267626	     73.61291991	    114.59584018	     68.03036871
      2.46666670	    -15.91303037	      8.45996656	     -4.91741667	      0.39825566	      0.79111730	     -0.00656925	     62.71010806	      1.01891297	      0.73325526	     73.63375106	     36.57697346	      3.59390775	      0.00000000	     67.46099506	      1.30102851	     -3.78866963	      9.34107131	      3.71511752	     -8.13189097	      0.00000000	    -16.38306496	      5.14580235	      0.39944835	     93.57943495	      4.89739255	     62.43906283	    115.74161572	     90.06073092	    105.11462793	      8.51027048	     74.04506341	    114.59969939	     68.09016790
      2.48333330	    -15.53083374	      8.50016439	     -4.90772081	      0.40089434	      0.79866225	     -0.00563975	     61.27577930	      0.76158155	      0.60452270	     72.29189702	     36.35320579	      3.97922051	      0.00000000	     67.14910331	      1.32208782	     -3.62395061	      9.15133815	      3.51127484	     -8.09571824	      0.00000000	    -15.89474026	      4.96409097	      0.49406463	     92.91352408	      4.65681803	     62.12264618	    116.75258327	     89.97160586	    104.98168874	      8.64421044	     74.13502245	    114.49311391	     68.12851377
      2.50000000	    -15.09741391	      8.55443264	     -4.72753951	      0.40632982	      0.80693084	     -0.00513608	     59.53219816	      0.34333395	      0.41231789	     70.80127203	     36.41072911	      4.10949477	      0.00000000	     66.72705259	      1.52371939	     -3.65460636	      9.04846012	      3.50099368	     -7.83197172	      0.00000000	    -15.32318964	      4.31151012	      0.52031721	     91.83820642	      4.05002095	     60.78185495	    118.70684030	     89.76556416	    104.81330287	      9.30908689	     74.41772515	    113.59784229	     68.23849975
      2.51666670	    -14.94927802	      8.77344779	     -4.63249742	      0.40738448	      0.81381159	     -0.00597358	     58.28105644	     -0.05300213	      0.49766761	     69.30094761	     35.91724577	      4.37835668	      0.00000000	     66.76051070	      1.75452898	     -3.74095412	      9.03350699	      3.60640127	     -7.71127209	      0.00000000	    -14.55946192	      3.91945806	      0.28488182	     91.52126566	      4.21223832	     60.43344522	    119.14875791	     89.72700964	    104.88922696	      9.37713973	     74.36401522	    113.41013716	     68.26232868
